<?xml version="1.0" standalone="no"?>
<svg xmlns:xlink="http://www.w3.org/1999/xlink" id="wave" style="transform:rotate(0deg); transition: 0.3s" viewBox="0 0 1440 490" version="1.1" xmlns="http://www.w3.org/2000/svg"><defs><linearGradient id="sw-gradient-0" x1="0" x2="0" y1="1" y2="0"><stop stop-color="rgba(255, 111, 97, 0.7529411764705882)" offset="0%"/><stop stop-color="rgba(253, 203, 130, 1)" offset="100%"/></linearGradient></defs><path style="transform:translate(0, 0px); opacity:1" fill="url(#sw-gradient-0)" d="M0,343L80,326.7C160,310,320,278,480,236.8C640,196,800,147,960,147C1120,147,1280,196,1440,236.8C1600,278,1760,310,1920,294C2080,278,2240,212,2400,212.3C2560,212,2720,278,2880,310.3C3040,343,3200,343,3360,351.2C3520,359,3680,376,3840,334.8C4000,294,4160,196,4320,187.8C4480,180,4640,261,4800,277.7C4960,294,5120,245,5280,245C5440,245,5600,294,5760,326.7C5920,359,6080,376,6240,334.8C6400,294,6560,196,6720,204.2C6880,212,7040,327,7200,334.8C7360,343,7520,245,7680,171.5C7840,98,8000,49,8160,89.8C8320,131,8480,261,8640,326.7C8800,392,8960,392,9120,383.8C9280,376,9440,359,9600,334.8C9760,310,9920,278,10080,236.8C10240,196,10400,147,10560,114.3C10720,82,10880,65,11040,89.8C11200,114,11360,180,11440,212.3L11520,245L11520,490L11440,490C11360,490,11200,490,11040,490C10880,490,10720,490,10560,490C10400,490,10240,490,10080,490C9920,490,9760,490,9600,490C9440,490,9280,490,9120,490C8960,490,8800,490,8640,490C8480,490,8320,490,8160,490C8000,490,7840,490,7680,490C7520,490,7360,490,7200,490C7040,490,6880,490,6720,490C6560,490,6400,490,6240,490C6080,490,5920,490,5760,490C5600,490,5440,490,5280,490C5120,490,4960,490,4800,490C4640,490,4480,490,4320,490C4160,490,4000,490,3840,490C3680,490,3520,490,3360,490C3200,490,3040,490,2880,490C2720,490,2560,490,2400,490C2240,490,2080,490,1920,490C1760,490,1600,490,1440,490C1280,490,1120,490,960,490C800,490,640,490,480,490C320,490,160,490,80,490L0,490Z"/><defs><linearGradient id="sw-gradient-1" x1="0" x2="0" y1="1" y2="0"><stop stop-color="rgba(253, 203, 130, 1)" offset="0%"/><stop stop-color="rgba(253, 203, 130, 1)" offset="100%"/></linearGradient></defs><path style="transform:translate(0, 50px); opacity:0.9" fill="url(#sw-gradient-1)" d="M0,441L80,432.8C160,425,320,408,480,359.3C640,310,800,229,960,196C1120,163,1280,180,1440,228.7C1600,278,1760,359,1920,351.2C2080,343,2240,245,2400,236.8C2560,229,2720,310,2880,359.3C3040,408,3200,425,3360,424.7C3520,425,3680,408,3840,400.2C4000,392,4160,392,4320,375.7C4480,359,4640,327,4800,318.5C4960,310,5120,327,5280,285.8C5440,245,5600,147,5760,106.2C5920,65,6080,82,6240,138.8C6400,196,6560,294,6720,310.3C6880,327,7040,261,7200,228.7C7360,196,7520,196,7680,179.7C7840,163,8000,131,8160,171.5C8320,212,8480,327,8640,334.8C8800,343,8960,245,9120,196C9280,147,9440,147,9600,155.2C9760,163,9920,180,10080,155.2C10240,131,10400,65,10560,89.8C10720,114,10880,229,11040,269.5C11200,310,11360,278,11440,261.3L11520,245L11520,490L11440,490C11360,490,11200,490,11040,490C10880,490,10720,490,10560,490C10400,490,10240,490,10080,490C9920,490,9760,490,9600,490C9440,490,9280,490,9120,490C8960,490,8800,490,8640,490C8480,490,8320,490,8160,490C8000,490,7840,490,7680,490C7520,490,7360,490,7200,490C7040,490,6880,490,6720,490C6560,490,6400,490,6240,490C6080,490,5920,490,5760,490C5600,490,5440,490,5280,490C5120,490,4960,490,4800,490C4640,490,4480,490,4320,490C4160,490,4000,490,3840,490C3680,490,3520,490,3360,490C3200,490,3040,490,2880,490C2720,490,2560,490,2400,490C2240,490,2080,490,1920,490C1760,490,1600,490,1440,490C1280,490,1120,490,960,490C800,490,640,490,480,490C320,490,160,490,80,490L0,490Z"/><defs><linearGradient id="sw-gradient-2" x1="0" x2="0" y1="1" y2="0"><stop stop-color="rgba(243, 106, 62, 1)" offset="0%"/><stop stop-color="rgba(255, 179, 11, 1)" offset="100%"/></linearGradient></defs><path style="transform:translate(0, 100px); opacity:0.8" fill="url(#sw-gradient-2)" d="M0,343L80,302.2C160,261,320,180,480,179.7C640,180,800,261,960,245C1120,229,1280,114,1440,73.5C1600,33,1760,65,1920,138.8C2080,212,2240,327,2400,351.2C2560,376,2720,310,2880,253.2C3040,196,3200,147,3360,138.8C3520,131,3680,163,3840,220.5C4000,278,4160,359,4320,367.5C4480,376,4640,310,4800,302.2C4960,294,5120,343,5280,359.3C5440,376,5600,359,5760,326.7C5920,294,6080,245,6240,220.5C6400,196,6560,196,6720,163.3C6880,131,7040,65,7200,98C7360,131,7520,261,7680,277.7C7840,294,8000,196,8160,163.3C8320,131,8480,163,8640,220.5C8800,278,8960,359,9120,359.3C9280,359,9440,278,9600,277.7C9760,278,9920,359,10080,343C10240,327,10400,212,10560,171.5C10720,131,10880,163,11040,163.3C11200,163,11360,131,11440,114.3L11520,98L11520,490L11440,490C11360,490,11200,490,11040,490C10880,490,10720,490,10560,490C10400,490,10240,490,10080,490C9920,490,9760,490,9600,490C9440,490,9280,490,9120,490C8960,490,8800,490,8640,490C8480,490,8320,490,8160,490C8000,490,7840,490,7680,490C7520,490,7360,490,7200,490C7040,490,6880,490,6720,490C6560,490,6400,490,6240,490C6080,490,5920,490,5760,490C5600,490,5440,490,5280,490C5120,490,4960,490,4800,490C4640,490,4480,490,4320,490C4160,490,4000,490,3840,490C3680,490,3520,490,3360,490C3200,490,3040,490,2880,490C2720,490,2560,490,2400,490C2240,490,2080,490,1920,490C1760,490,1600,490,1440,490C1280,490,1120,490,960,490C800,490,640,490,480,490C320,490,160,490,80,490L0,490Z"/></svg>